# xmcd
#
# Track frame offsets: 
#        750
#        18685
#        35148
#        51287
#        71575
#        94620
#        110711
#        125178
#        142903
#        159654
#        184000
#        200335
#        216814
#        234797
#        249164
#        266740
#        282418
#        311476
#        318976
#
# Disc length: 4261 seconds
#
# Revision: 6
# Processed by: cddbd v1.5.2PL0 Copyright (c) Steve Scherf et al.
# Submitted via: ExactAudioCopyFreeDBPlugin 1.0
#
DISCID=19109b13
DTITLE=Sarah Connor - 2001 - Connor - Green Eyed Soul
DYEAR=2001
DGENRE=Soul
TTITLE0=Let's Get Back To Bed - Boy! (featuring TQ)
TTITLE1=If U Were My Man
TTITLE2=French Kissing
TTITLE3=Magic Ride (Whatever U Wish 4) (guest feature by TQ)
TTITLE4=From Sarah With Love
TTITLE5=Make U High
TTITLE6=In My House
TTITLE7=Where Do We Go From Here
TTITLE8=I Can't Lie
TTITLE9=Imagining
TTITLE10=Every Little Thing
TTITLE11=Undressed
TTITLE12=Can't Get None
TTITLE13=Man Of My Dreams
TTITLE14=Let Us Come 2gether
TTITLE15=When I Dream
TTITLE16=Let's Get Back To Bed - Boy! (Gena B. Good-Remix)
TTITLE17=Spur 18
TTITLE18=Spur 19
EXTD=
EXTT0=
EXTT1=
EXTT2=
EXTT3=
EXTT4=
EXTT5=
EXTT6=
EXTT7=
EXTT8=
EXTT9=
EXTT10=
EXTT11=
EXTT12=
EXTT13=
EXTT14=
EXTT15=
EXTT16=
EXTT17=
EXTT18=
PLAYORDER=
